<svg width="234" height="282" viewBox="0 0 234 282" xmlns="http://www.w3.org/2000/svg">
  <path d="M19.628 135.878L.42 116.67l19.208-19.207 19.208 19.208-19.208 19.208v-.001zm194.744.037l-19.208-19.207L214.372 97.5l19.207 19.208-19.208 19.207h.001zM87.628 67.897l29.385-29.385 29.484 29.484-29.39 29.385-29.48-29.483.001-.001zm97.416 97.424l-48.682-48.688 48.636-48.636L117.013.012 49.118 67.899l97.424 97.424-29.484 29.485-48.683-48.683-19.25 19.25 48.684 48.686-48.405 48.397 19.25 19.25 48.405-48.396 48.68 48.68 19.252-19.252-48.683-48.682 48.734-48.735.002-.002z" fill="#0A0A08" fill-rule="evenodd"/>
</svg>
